<svg xmlns="http://www.w3.org/2000/svg" viewBox="0 0 562 116.67"><g id="Ebene_2" data-name="Ebene 2"><g id="Ebene_1-2" data-name="Ebene 1"><g id="Group_702" data-name="Group 702"><path id="Path_560" data-name="Path 560" d="M32,29.17c17.57,0,27.76,11.71,30.31,24.58H53.11C50.44,43.69,43.05,37.32,32,37.32c-13.63,0-22.8,10.82-22.8,25.85S18.34,88.9,32,88.9c11.08,0,18.47-6.37,21.14-16.43h9.17C59.73,85.34,49.54,97.05,32,97.05c-19.74,0-32-16.17-32-33.88S12.23,29.17,32,29.17Z"/><path id="Path_561" data-name="Path 561" d="M81.73,40.86c4.47-6.87,13.07-11.64,25-11.64.64,0,2.17.13,2.17.13v8.53s-1.53-.13-3.19-.13c-11.08,0-19.38,8.27-19.38,21.77l0,35.17h-9s0-36.49,0-36.53A31.57,31.57,0,0,1,81.73,40.86Z"/><path id="Path_562" data-name="Path 562" d="M125.58,65.72c.89,13.12,9.42,23.18,23,23.18,9.94,0,17.58-5.73,20.39-13.63h9.42a30.29,30.29,0,0,1-29.93,21.78c-20.51,0-32-15.79-32-34,0-17.95,12.35-33.88,31.84-33.88s31.2,14.78,31.2,33.12c0,1.4-.13,3.44-.13,3.44Zm.25-7.39h44.71c-1.15-12.48-9.42-21-22.16-21s-21,9-22.55,21Z"/><path id="Path_563" data-name="Path 563" d="M222,116.67H196V0h26V8.41H204.83v99.86H222Z"/><path id="Path_564" data-name="Path 564" d="M286.22,95.53h-8.66v-12c-4.46,8.28-12.74,13.5-24.58,13.5-19.87,0-30.57-16-30.57-33.88s10.7-34,30.57-34c11.84,0,20.12,5.23,24.58,13.5v-12h8.66ZM254.76,88.9c14.52,0,22.8-11.58,22.8-25.73s-8.28-25.85-22.8-25.85S231.58,49,231.58,63.17s8.66,25.73,23.18,25.73Z"/><path id="Path_565" data-name="Path 565" d="M306.09,30.7h9V95.53h-9Z"/><path id="Path_566" data-name="Path 566" d="M322.64,108.27h17.2V8.41h-17.2V0h26V116.67h-26Z"/><path id="Path_567" data-name="Path 567" d="M366.24,30.42V12h9V30.42h13.25v7.64H375.29V95.25h-9.05V38.06"/><path id="Path_568" data-name="Path 568" d="M405.86,30.42h9.05V95.25h-9.05Z"/><path id="Path_569" data-name="Path 569" d="M429.94,62.9c0-17.83,12.6-34,33-34S496,45.07,496,62.9s-12.61,33.88-33.12,33.88S429.94,80.73,429.94,62.9Zm33,25.73c14.52,0,23.95-11.21,23.95-25.73S477.45,37,462.92,37,439.11,48.25,439.11,62.9,448.53,88.63,462.92,88.63Z"/><path id="Path_570" data-name="Path 570" d="M512.2,39.29c3.66-6.13,11.09-10.45,23.7-10.45,16.05,0,26.1,9.46,26.1,25V95.25h-9V55.64c0-11.72-5.48-18.85-17.07-18.85-10.95,0-19.51,7.68-19.51,20.67l0,37.79h-9V58.35A34.84,34.84,0,0,1,512.2,39.29Z"/></g></g></g></svg>